PathFileType	4	(X/Y/Z)	D:\TRACE\v60_Jaco2_6-2-23\JustArmDRS_Motion1_2-platform.trc
DataRate	CameraRate	NumFrames	NumMarkers	Units	OrigDataRate	OrigDataStartFrame	OrigNumFrames
100.00	100.00	      41	5	mm	100.00	4256	      6808
Frame#	Time	Left_Front			Right_Front			Left_Aft			Right_Aft			Post			
		X1	Y1	Z1	X2	Y2	Z2	X3	Y3	Z3	X4	Y4	Z4	X5	Y5	Z5	

4256	42.550	-842.32281	-16.69500	-644.08075	727.72363	-15.12275	-649.37012	-750.37091	25.32273	490.31616	692.09119	25.32115	499.45789	-55.93720	1269.81213	-1016.08911	
4257	42.560	-841.75287	-16.58472	-644.12762	728.12134	-15.11952	-649.54663	-749.87280	25.26625	490.33539	692.44141	25.22084	499.42740	-55.39017	1269.97131	-1015.72278	
4258	42.570	-841.28851	-16.49704	-644.23907	728.48138	-15.14781	-649.63019	-749.41479	25.20025	490.33322	692.85315	25.13215	499.38519	-55.19724	1270.09290	-1015.70398	
4259	42.580	-840.96106	-16.52151	-644.17676	729.17249	-15.29653	-649.53656	-748.95117	25.10986	490.40417	693.29474	25.07654	499.43533	-54.77238	1270.26599	-1015.52362	
4260	42.590	-840.30511	-16.39926	-644.12970	729.89038	-15.15004	-649.46771	-748.50812	25.11390	490.42862	693.93384	25.03869	499.50702	-54.05552	1270.28870	-1015.43951	
4261	42.600	-839.58313	-16.34598	-644.26648	730.33142	-15.00503	-649.55316	-747.80164	25.01516	490.49017	694.75012	24.96502	499.59457	-53.22414	1270.35840	-1015.33173	
4262	42.610	-838.89661	-16.12991	-644.24738	730.87177	-14.93196	-649.60101	-747.11658	25.01976	490.43597	695.08435	24.90810	499.64774	-52.71120	1270.53906	-1015.15613	
4263	42.620	-838.30261	-16.00876	-644.37115	731.53180	-14.71294	-649.55707	-746.52838	24.88676	490.46149	695.77533	24.73248	499.57333	-52.36864	1270.67310	-1014.86047	
4264	42.630	-837.77893	-15.85597	-644.21375	732.33075	-14.62215	-649.49225	-745.95148	24.78797	490.46359	696.34729	24.77402	499.63458	-51.89237	1270.74658	-1014.67487	
4265	42.640	-837.06757	-15.67548	-644.04053	732.92358	-14.42125	-649.32532	-745.33240	24.59368	490.37079	697.10193	24.70389	499.74176	-51.15238	1271.00879	-1014.53210	
4266	42.650	-836.57147	-15.66498	-644.03308	733.44354	-14.32118	-649.27777	-744.73651	24.52600	490.37338	697.76044	24.53778	499.81070	-50.21576	1271.29761	-1014.40112	
4267	42.660	-835.78516	-15.60155	-643.94458	734.03149	-14.18681	-649.38611	-743.91882	24.49041	490.42383	698.33344	24.68200	499.81302	-49.28468	1271.36658	-1014.52161	
4268	42.670	-835.04791	-15.60683	-644.14386	734.88733	-13.97440	-649.42084	-743.31531	24.38752	490.46024	698.86279	24.58028	499.79889	-48.78489	1271.53333	-1013.64221	
4269	42.680	-834.40332	-15.29931	-644.14099	735.29498	-13.88708	-649.60504	-742.66089	24.29317	490.51651	699.79498	24.36226	499.83160	-48.20258	1271.74365	-1013.18597	
4270	42.690	-833.87097	-15.05187	-644.00830	736.14368	-13.64423	-649.37891	-741.92883	24.32921	490.60693	700.34186	24.11099	499.86783	-47.74769	1272.07886	-1012.77393	
4271	42.700	-833.23737	-14.92709	-644.01855	736.84784	-13.54938	-649.18054	-741.39380	24.22547	490.65536	700.74457	24.18702	499.82632	-47.30933	1272.28564	-1012.56555	
4272	42.710	-832.53058	-14.86168	-643.91431	737.28082	-13.40115	-649.20697	-740.63226	24.05991	490.67487	701.58130	24.09261	499.81161	-46.16411	1272.57715	-1012.03937	
4273	42.720	-831.61517	-14.84026	-644.02362	738.32654	-13.25416	-649.16547	-739.78687	24.02166	490.75961	702.42926	23.88340	499.86395	-45.28134	1273.15002	-1011.96820	
4274	42.730	-830.87286	-14.54032	-643.83978	738.99548	-13.11502	-649.22504	-739.08191	23.84037	490.77841	703.06396	23.66768	499.91705	-44.94481	1273.32739	-1011.51630	
4275	42.740	-830.09448	-14.45303	-643.98602	739.66980	-12.93420	-649.29767	-738.45239	23.64762	490.80209	703.92780	23.57467	500.04797	-44.47347	1273.42944	-1011.28455	
4276	42.750	-829.63092	-14.32930	-643.96521	740.53705	-12.81280	-649.15887	-737.61670	23.45014	490.79822	704.68372	23.47829	500.10059	-43.24961	1273.54883	-1011.14587	
4277	42.760	-828.86890	-14.28885	-643.70483	741.21771	-12.70028	-649.05249	-736.84814	23.41094	490.77383	705.32025	23.31731	500.17599	-41.97658	1273.87781	-1010.70789	
4278	42.770	-827.75977	-13.99499	-643.58002	741.97412	-12.50491	-648.97119	-736.08752	23.33616	490.76245	706.16547	23.21765	500.21121	-41.45372	1274.24414	-1010.58612	
4279	42.780	-827.07367	-13.80198	-643.54523	742.93396	-12.26299	-649.00647	-735.38397	23.22065	490.88208	707.23114	23.13210	500.27524	-40.89920	1274.41406	-1010.20557	
4280	42.790	-826.46924	-13.52465	-643.56781	743.53766	-12.03314	-649.07410	-734.48059	23.05963	490.94113	707.90900	23.04587	500.29736	-40.06214	1274.75745	-1009.66534	
4281	42.800	-825.67749	-13.40603	-643.51489	744.36926	-11.81106	-649.01666	-733.80304	22.86348	490.98715	708.57745	22.82765	500.35269	-39.16698	1275.05737	-1009.27197	
4282	42.810	-824.65149	-12.96670	-643.72852	745.17218	-11.59594	-648.90540	-732.85657	22.65378	491.19278	709.62207	22.71643	500.39731	-38.24884	1275.37988	-1008.71136	
4283	42.820	-823.61816	-13.01756	-643.56982	745.92932	-11.34113	-648.93683	-732.08228	22.54594	491.26221	710.15552	22.58138	500.46643	-37.64982	1275.88196	-1008.02979	
4284	42.830	-822.89386	-12.99015	-643.57361	746.85083	-11.01202	-648.80127	-731.33569	22.34026	491.34674	711.14771	22.34768	500.38281	-37.04861	1276.28284	-1007.29865	
4285	42.840	-822.27954	-12.28102	-643.39191	747.60303	-10.85162	-648.94940	-730.51752	22.20750	491.34387	712.03882	22.19385	500.40320	-36.09313	1276.48047	-1006.51581	
4286	42.850	-821.51093	-12.13484	-643.43158	748.37427	-10.62427	-648.97583	-729.72162	22.10439	491.31485	712.84979	22.05976	500.60886	-35.30032	1276.97473	-1005.96368	
4287	42.860	-820.56976	-11.99031	-643.30725	749.36938	-10.41187	-648.74329	-728.80731	21.86140	491.31186	713.42914	21.90487	500.68896	-34.48693	1277.52808	-1005.49683	
4288	42.870	-819.51135	-11.69999	-643.38947	750.16388	-10.10427	-648.64685	-727.78101	21.64094	491.44360	714.56323	21.65473	500.69418	-33.83291	1277.81775	-1005.04858	
4289	42.880	-818.52295	-11.64104	-643.34399	751.15369	-9.82229	-648.64685	-727.10034	21.42293	491.45999	715.47302	21.41804	500.86777	-32.96384	1278.09937	-1004.63605	
4290	42.890	-817.72626	-11.67640	-643.47375	751.95380	-9.68138	-648.79749	-725.99634	21.26275	491.53125	716.29138	21.28307	500.99924	-31.49097	1278.36072	-1004.22815	
4291	42.900	-816.80530	-11.24798	-643.43994	752.77667	-9.50419	-648.61047	-725.25800	21.29237	491.65198	717.28931	21.15954	501.05106	-30.84650	1278.81738	-1004.04681	
4292	42.910	-815.83002	-10.95292	-643.36121	753.70270	-9.02223	-648.50226	-724.48865	21.00532	491.67578	718.16302	20.84240	501.03244	-30.12548	1279.33459	-1003.42749	
4293	42.920	-814.99335	-10.69667	-643.06470	754.60065	-8.69657	-648.38843	-723.46271	20.75768	491.75882	718.81079	20.60682	501.12296	-29.26507	1279.69409	-1002.75946	
4294	42.930	-814.01550	-10.57298	-642.70978	755.60132	-8.62415	-648.35754	-722.65967	20.50968	491.86789	719.66248	20.40273	501.18710	-28.18863	1280.31812	-1002.31866	
4295	42.940	-813.16577	-10.27218	-643.19128	756.23914	-8.24226	-648.38287	-721.69006	20.23770	491.96591	720.66943	20.19700	501.42542	-27.21621	1280.88953	-1001.40454	
4296	42.950	-812.67596	-9.33471	-642.90332	757.29456	-7.85263	-648.15442	-720.64520	20.12205	491.93716	721.47980	20.23511	501.38913	-26.48354	1281.27893	-1000.85211	
